# xmcd CD database file
#
# Track frame offsets:
#	150
#	13125
#	27838
#	41230
#	53919
#	66815
#	80673
#	92982
#	109505
#	121432
#	136509
#	147911
#	159698
#	171934
#	184003
#
# Disc length: 2650 seconds
#
# Revision: 0
# Processed by: cddbd v1.5.2PL0 Copyright (c) Steve Scherf et al.
# Submitted via: CDex 1.70beta2
#
DISCID=ce0a580f
DTITLE=Ronny - Das Beste - Hohe Tannen CD1
DYEAR=2012
DGENRE=Country
TTITLE0=Oh My Darling Caroline   
TTITLE1=Doch dann kamst du   
TTITLE2=Oh, Good Morning My Sweet Adalita   
TTITLE3=Hohe Tannen   
TTITLE4=Sonnenschein auf allen Wegen   
TTITLE5=Im grünen Wald   
TTITLE6=Kein Gold im Blue River   
TTITLE7=Es war im Böhmerwald (Tief drin im Böhmerwald)   
TTITLE8=Rosen so rot    
TTITLE9=The Green Valleys Of Home    
TTITLE10=Träume, Liebling   
TTITLE11=Jetzt kommen die lustigen Tage   
TTITLE12=Lass die Sonne wieder scheinen   
TTITLE13=Anja, Anja   
TTITLE14=Adios, My Darling   
EXTD=YEAR: 2012
EXTT0=
EXTT1=
EXTT2=
EXTT3=
EXTT4=
EXTT5=
EXTT6=
EXTT7=
EXTT8=
EXTT9=
EXTT10=
EXTT11=
EXTT12=
EXTT13=
EXTT14=
PLAYORDER=
